<svg height="500" width="500" xmlns="http://www.w3.org/2000/svg"><path d="M54.152 0C24.152 0 0 24.152 0 54.152v391.696C0 475.848 24.152 500 54.152 500h391.696c30 0 54.152-24.152 54.152-54.152V54.152C500 24.152 475.848 0 445.848 0H54.152zm209.724 133.01c4.554-.022 10.474.79 14.215 3.384 2.758 1.913 6.386 4.127 6.43 12.749.147 28.205-.195 52.774.226 81.565.55 5.993 4.444 8.48 8.123 8.462 3.68-.018 7.9-2.318 11.056-5.416 17.092-16.78 36.784-57.142 48.85-83.596 4.502-9.872 11.768-9.239 19.968-9.251 27.453-.04 38.57.307 64.305.451 4.713.026 8.82 4.006 10.153 6.882 1.152 2.483 1.977 9.676-4.287 19.856-19.271 31.315-36.99 56.532-58.438 86.304-1.353 1.878-2.639 4.116-2.595 6.43.04 2.116 1.136 4.22 2.595 5.754 19.124 20.118 39.087 40.362 58.664 62.5 5.768 6.522 2.146 16.585.564 19.404-1.199 2.136-6.613 7.642-10.266 7.672-13.304.106-13.337 0-69.044 0-8.25 0-11.542-2.41-15.907-6.995-19.314-20.29-16.934-17.84-38.131-40.5-2.754-2.945-8.213-6.644-13.426-4.288-4.424 2-12.522 4.952-12.522 13.087v28.43c0 5.163-8.102 9.025-12.974 9.025h-37.906c-17.845 0-33.292-4.303-41.855-8.461-36.892-17.915-58.824-42.864-82.807-84.387-20.478-35.456-38.298-70.365-55.844-106.95-1.96-4.087-3.353-13.086 11.282-13.086 15.461 0 29.96-.338 53.475-.338 6.903 0 11.196 1.39 14.102 3.497 2.905 2.108 4.335 4.917 5.753 7.559 29.254 54.472 29.32 57.806 50.203 84.837 1.961 2.538 4.788 2.922 6.882 2.934 2.588.014 4.98-.406 6.995-2.031 4.227-3.41 5.415-7.064 5.415-12.297v-55.054c0-6.313-4.276-15.67-9.025-18.615-4.92-2.832-13.007-5.638-12.748-9.138.283-3.828 9.19-10.266 25.045-10.266 18.955 0 32.389-.015 53.474-.113z"/></svg>