<svg width="23" height="23" viewBox="0 0 23 23" fill="none" xmlns="http://www.w3.org/2000/svg">
<path d="M6.81472 2.98139L10.6481 1.70361L16.611 2.55547L19.5925 5.96287L21.2962 9.79621V14.0555L19.1666 17.8888L14.4814 20.8703L10.6481 21.2962L7.24065 20.0184H5.53695L2.12954 20.8703L2.98139 16.611L1.70361 12.3518L2.55547 7.66658L6.81472 2.98139Z" fill="white"/>
<path d="M14.616 12.7603C14.8608 12.8496 16.1735 13.4952 16.4404 13.6289C16.7073 13.7627 16.8853 13.8294 16.9519 13.9407C17.0188 14.0522 17.0188 14.5866 16.7964 15.2103C16.5737 15.8339 15.5073 16.4031 14.9943 16.4798C14.5342 16.5485 13.9523 16.5772 13.3127 16.374C12.9249 16.2509 12.4277 16.0868 11.7907 15.8115C9.11263 14.6552 7.36344 11.9586 7.22999 11.7804L7.2276 11.7772C7.08554 11.5875 6.13989 10.3251 6.13989 9.01861C6.13989 7.70452 6.82951 7.05872 7.07417 6.79143C7.31896 6.524 7.60823 6.45728 7.78617 6.45728C7.96423 6.45728 8.14229 6.45885 8.29785 6.46662C8.46184 6.47478 8.68175 6.4045 8.89864 6.92488C9.12106 7.45959 9.65498 8.77369 9.72158 8.90727C9.78843 9.04085 9.83305 9.19681 9.74395 9.375C9.65498 9.55307 9.36558 9.92933 9.07657 10.2882C8.95813 10.4351 8.80388 10.5657 8.95944 10.8331C9.11526 11.1002 9.65104 11.9745 10.4446 12.6824C11.4645 13.592 12.3246 13.874 12.5917 14.0076C12.8587 14.1413 13.0143 14.1189 13.1701 13.9407C13.3259 13.7627 13.8375 13.1612 14.0155 12.894C14.1933 12.6269 14.3715 12.6712 14.616 12.7603Z" fill="#4713DC"/>
<path fill-rule="evenodd" clip-rule="evenodd" d="M19.1274 3.84108C17.1101 1.82144 14.4273 0.708704 11.5692 0.70752C5.6798 0.70752 0.886671 5.50052 0.884302 11.3915C0.883513 13.2747 1.37546 15.113 2.31053 16.7333L0.794678 22.27L6.45891 20.7842C8.01964 21.6355 9.77673 22.0842 11.5649 22.0847H11.5693C17.4581 22.0847 22.2518 17.2913 22.254 11.4001C22.2552 8.54498 21.1448 5.86059 19.1274 3.84108ZM11.5692 20.2802H11.5655C9.97203 20.2796 8.4092 19.8513 7.04549 19.0424L6.72134 18.8498L3.36009 19.7316L4.25726 16.4544L4.04603 16.1184C3.15702 14.7045 2.68758 13.0702 2.68837 11.3922C2.69021 6.49573 6.67422 2.51212 11.5728 2.51212C13.9449 2.5129 16.1747 3.43784 17.8513 5.11649C19.528 6.79513 20.4508 9.0264 20.4501 11.3994C20.448 16.2962 16.4642 20.2802 11.5692 20.2802Z" fill="white"/>
</svg>
